<?xml version="1.0" encoding="UTF-8" standalone="no"?>
<!DOCTYPE svg PUBLIC "-//W3C//DTD SVG 1.1//EN" "http://www.w3.org/Graphics/SVG/1.1/DTD/svg11.dtd">
<svg width="100%" height="100%" viewBox="0 0 1443 265" version="1.1" xmlns="http://www.w3.org/2000/svg" xmlns:xlink="http://www.w3.org/1999/xlink" xml:space="preserve" xmlns:serif="http://www.serif.com/" style="fill-rule:evenodd;clip-rule:evenodd;stroke-linejoin:round;stroke-miterlimit:2;">
    <rect id="Betsaleel---longotype" serif:id="Betsaleel - longotype" x="0.148" y="0" width="1442.6" height="264.813" style="fill:none;"/>
    <g id="Betsaleel---longotype1" serif:id="Betsaleel - longotype">
        <g>
            <g transform="matrix(1,0,0,1,-8,0)">
                <path d="M160.315,8.274L78.746,8.274L20.823,244.037L118.867,244.037L127.77,193.391L86.209,193.391L96.815,150.853L135.249,150.853L143.837,101.999L95.221,101.999L105.827,59.461L151.316,59.461L160.315,8.274ZM167.059,8.274L158.06,59.461L205.053,59.461L194.447,101.999L150.582,101.999L141.993,150.853L196.041,150.853L185.436,193.391L134.515,193.391L125.611,244.037L158.97,244.037C208.266,244.037 246.8,214.03 249.673,172.951C251.196,151.16 242.086,133.3 224.642,122.226C239.73,110.795 247.974,95.077 249.348,75.431C252.095,36.137 223.323,8.274 179.743,8.274L167.059,8.274Z" style="fill:rgb(4,68,77);stroke:rgb(4,68,77);stroke-width:1px;"/>
            </g>
            <g transform="matrix(1,0,0,1,-8,0)">
                <path d="M422.088,172.975C427.9,161.609 431.655,149.533 432.999,136.746C437.74,91.638 407.432,58.961 360.904,58.961C306.673,57.896 254.618,103.714 250.402,157.347C244.914,209.558 279.896,245.076 335.304,245.076C364.784,245.076 388.262,237.973 410.15,222.345L394.946,181.144C378.029,190.023 361.916,194.641 345.933,194.641C325.687,194.641 313.648,187.537 309.85,172.975L422.088,172.975ZM313.602,133.905C320.721,116.856 334.983,106.2 350.966,106.2C367.66,106.2 377.513,117.211 375.758,133.905L313.602,133.905Z" style="fill:rgb(4,68,77);fill-rule:nonzero;stroke:rgb(4,68,77);stroke-width:1px;"/>
            </g>
            <g transform="matrix(1,0,0,1,-8,0)">
                <path d="M519.249,113.659L567.553,113.659L581.734,63.223L533.429,63.223L545.723,20.602L484.632,20.602L472.693,63.223L446.054,63.223L431.874,113.659L458.157,113.659L443.36,166.581C441.548,173.685 440.166,180.078 439.606,185.406C435.686,222.7 462.814,245.076 512.895,245.076C520.354,245.076 527.887,244.366 535.813,243.3L549.994,192.865L535.786,192.865C510.569,192.865 501.221,187.182 502.677,173.33C502.938,170.843 503.554,168.357 504.171,165.871L519.249,113.659Z" style="fill:rgb(4,68,77);fill-rule:nonzero;stroke:rgb(4,68,77);stroke-width:1px;"/>
            </g>
            <g transform="matrix(1,0,0,1,-8,0)">
                <path d="M542.331,204.941C554.953,230.159 582.866,245.076 618.029,245.076C659.585,245.076 693.173,219.503 696.869,184.34C699.258,161.609 685.104,144.205 654.407,132.129L639.059,126.091C633.207,124.315 630.141,119.697 630.701,114.37C631.261,109.042 635.822,106.2 641.86,106.2C652.87,106.2 665.34,112.594 674.483,123.604L712.164,89.507C697.599,69.262 675.239,58.961 645.404,58.961C605.269,58.961 576.559,82.048 572.937,116.501C570.138,143.139 584.105,162.319 614.447,174.395L630.468,180.788C636.6,183.275 639.498,186.116 639.088,190.023C638.528,195.351 632.939,197.837 623.349,197.837C607.721,197.837 595.4,190.023 581.676,171.909L542.331,204.941Z" style="fill:rgb(4,68,77);fill-rule:nonzero;stroke:rgb(4,68,77);stroke-width:1px;"/>
            </g>
            <g transform="matrix(1,0,0,1,-8,0)">
                <path d="M855.934,63.223L851.917,77.786C842.568,65.355 826.547,58.961 804.17,58.961C751.36,57.896 703.493,104.424 698.623,160.898C693.508,209.558 722.452,245.076 765.784,245.076C785.319,245.076 801.619,238.683 815.002,226.252L810.985,240.814L868.169,240.814L917.025,63.223L855.934,63.223ZM832.506,150.953C830.117,173.685 812.342,190.734 790.676,190.734C771.141,190.734 759.847,176.526 762.124,154.86C764.663,130.708 782.12,113.304 803.076,113.304C822.966,113.304 834.858,128.577 832.506,150.953Z" style="fill:rgb(4,68,77);fill-rule:nonzero;stroke:rgb(4,68,77);stroke-width:1px;"/>
            </g>
            <g transform="matrix(1,0,0,1,-8,0)">
                <path d="M948.011,193.478L891.607,193.223L878.57,241.03L935.23,241.03L948.011,193.478ZM891.607,193.223L948.197,193.478L996.653,15.781L939.993,15.781L891.607,193.223Z" style="fill:rgb(4,68,77);stroke:rgb(4,68,77);stroke-width:1px;"/>
            </g>
            <g transform="matrix(1,0,0,1,-8,0)">
                <path d="M1143.73,172.242C1149.87,160.232 1153.84,147.472 1155.26,133.961C1160.27,86.298 1128.24,51.77 1079.08,51.77C1021.78,50.645 966.774,99.058 962.318,155.729C956.52,210.898 993.483,248.428 1052.03,248.428C1083.18,248.428 1107.99,240.922 1131.12,224.409L1115.05,180.874C1097.17,190.257 1080.15,195.135 1063.26,195.135C1041.87,195.135 1029.15,187.629 1025.13,172.242L1143.73,172.242ZM1029.1,130.959C1036.62,112.945 1051.69,101.685 1068.58,101.685C1086.22,101.685 1096.63,113.32 1094.78,130.959L1029.1,130.959Z" style="fill:rgb(4,68,77);fill-rule:nonzero;stroke:rgb(4,68,77);stroke-width:1px;"/>
            </g>
            <path d="M1324.62,172.242C1330.76,160.232 1334.73,147.472 1336.15,133.961C1341.16,86.298 1309.13,51.77 1259.97,51.77C1202.67,50.645 1147.66,99.058 1143.21,155.729C1137.41,210.898 1174.37,248.428 1232.92,248.428C1264.07,248.428 1288.88,240.922 1312.01,224.409L1295.94,180.874C1278.07,190.257 1261.04,195.135 1244.15,195.135C1222.76,195.135 1210.04,187.629 1206.03,172.242L1324.62,172.242ZM1209.99,130.959C1217.51,112.945 1232.58,101.685 1249.47,101.685C1267.11,101.685 1277.52,113.32 1275.67,130.959L1209.99,130.959Z" style="fill:rgb(4,68,77);fill-rule:nonzero;stroke:rgb(4,68,77);stroke-width:1px;"/>
            <path d="M1382.15,194.903L1325.84,194.903L1312.88,242.71L1369.19,242.71L1382.15,194.903ZM1325.84,194.903L1382.15,194.903L1430.24,17.461L1373.93,17.461L1325.84,194.903Z" style="fill:rgb(4,68,77);stroke:rgb(4,68,77);stroke-width:1px;"/>
        </g>
    </g>
</svg>
