<?xml version="1.0" encoding="UTF-8" standalone="no"?>
<!DOCTYPE svg PUBLIC "-//W3C//DTD SVG 1.1//EN" "http://www.w3.org/Graphics/SVG/1.1/DTD/svg11.dtd">
<svg width="100%" height="100%" viewBox="0 0 960 961" version="1.1" xmlns="http://www.w3.org/2000/svg" xmlns:xlink="http://www.w3.org/1999/xlink" xml:space="preserve" xmlns:serif="http://www.serif.com/" style="fill-rule:evenodd;clip-rule:evenodd;stroke-linejoin:round;stroke-miterlimit:2;">
    <g id="monogramme">
        <g>
            <path id="_1-ou-L" serif:id="1 ou L" d="M770.131,652.941L643.552,652.941L614.428,769.749L741.007,769.749L770.131,652.941ZM770.13,652.941L878.227,219.389L751.648,219.389L643.552,652.941L770.13,652.941Z" style="fill:rgb(4,68,77);stroke:rgb(4,68,77);stroke-width:1px;"/>
            <path id="B-Betsaleel" serif:id="B Betsaleel" d="M425.664,189.416L224.572,189.416L81.773,770.645L323.481,770.645L345.431,645.788L242.971,645.788L269.118,540.918L363.868,540.918L385.042,420.478L265.187,420.478L291.335,315.607L403.479,315.607L425.664,189.416ZM442.291,189.416L420.106,315.607L535.958,315.607L509.811,420.478L401.669,420.478L380.495,540.918L513.742,540.918L487.595,645.788L362.059,645.788L340.108,770.645L422.349,770.645C543.878,770.645 638.878,696.67 645.959,595.395C649.716,541.676 627.256,497.643 584.252,470.343C621.448,442.162 641.771,403.414 645.158,354.978C651.932,258.106 580.999,189.416 473.56,189.416L442.291,189.416Z" style="fill:rgb(4,68,77);stroke:rgb(4,68,77);stroke-width:1px;"/>
        </g>
    </g>
</svg>
